<mxfile host="Electron" modified="2024-02-21T00:52:32.630Z" agent="Mozilla/5.0 (Windows NT 10.0; Win64; x64) AppleWebKit/537.36 (KHTML, like Gecko) draw.io/21.6.1 Chrome/112.0.5615.204 Electron/24.6.1 Safari/537.36" etag="QX7DGoMo3LUi4tky7Jm_" version="21.6.1" type="device">
  <diagram name="Page-1" id="0s2knBjQwlRzahpYmLkf">
    <mxGraphModel dx="693" dy="514" grid="1" gridSize="10" guides="1" tooltips="1" connect="1" arrows="1" fold="1" page="1" pageScale="1" pageWidth="827" pageHeight="1169" math="0" shadow="0">
      <root>
        <mxCell id="0" />
        <mxCell id="1" parent="0" />
        <mxCell id="3GclNWIvW_j_DvKTOzkS-30" value="reference" style="edgeStyle=orthogonalEdgeStyle;rounded=1;orthogonalLoop=1;jettySize=auto;html=1;exitX=0.5;exitY=1;exitDx=0;exitDy=0;entryX=1;entryY=0.5;entryDx=0;entryDy=0;fontFamily=open sans;fontSize=12;fontColor=default;dashed=1;endArrow=blockThin;endFill=0;" edge="1" parent="1" source="3GclNWIvW_j_DvKTOzkS-16" target="3GclNWIvW_j_DvKTOzkS-14">
          <mxGeometry relative="1" as="geometry">
            <Array as="points">
              <mxPoint x="390" y="450" />
            </Array>
          </mxGeometry>
        </mxCell>
        <mxCell id="3GclNWIvW_j_DvKTOzkS-3" value="" style="edgeStyle=orthogonalEdgeStyle;rounded=0;orthogonalLoop=1;jettySize=auto;html=1;endArrow=blockThin;endFill=1;fontFamily=open sans;" edge="1" parent="1" source="3GclNWIvW_j_DvKTOzkS-1" target="3GclNWIvW_j_DvKTOzkS-2">
          <mxGeometry relative="1" as="geometry" />
        </mxCell>
        <mxCell id="3GclNWIvW_j_DvKTOzkS-27" style="edgeStyle=orthogonalEdgeStyle;rounded=1;orthogonalLoop=1;jettySize=auto;html=1;exitX=0.5;exitY=1;exitDx=0;exitDy=0;entryX=0;entryY=0.5;entryDx=0;entryDy=0;fontFamily=open sans;fontSize=12;fontColor=default;endArrow=blockThin;endFill=1;" edge="1" parent="1" source="3GclNWIvW_j_DvKTOzkS-1" target="3GclNWIvW_j_DvKTOzkS-9">
          <mxGeometry relative="1" as="geometry" />
        </mxCell>
        <mxCell id="3GclNWIvW_j_DvKTOzkS-1" value="open issue" style="ellipse;html=1;labelPosition=center;verticalLabelPosition=top;align=center;verticalAlign=bottom;fontFamily=open sans;" vertex="1" parent="1">
          <mxGeometry x="80" y="360" width="20" height="20" as="geometry" />
        </mxCell>
        <mxCell id="3GclNWIvW_j_DvKTOzkS-35" style="edgeStyle=orthogonalEdgeStyle;rounded=1;orthogonalLoop=1;jettySize=auto;html=1;exitX=1;exitY=1;exitDx=0;exitDy=0;entryX=1;entryY=0;entryDx=0;entryDy=0;fontFamily=open sans;fontSize=12;fontColor=default;dashed=1;endArrow=blockThin;endFill=0;" edge="1" parent="1" source="3GclNWIvW_j_DvKTOzkS-2" target="3GclNWIvW_j_DvKTOzkS-9">
          <mxGeometry relative="1" as="geometry">
            <Array as="points">
              <mxPoint x="227" y="403" />
            </Array>
          </mxGeometry>
        </mxCell>
        <mxCell id="3GclNWIvW_j_DvKTOzkS-2" value="close issue ref. child issues" style="ellipse;html=1;labelPosition=center;verticalLabelPosition=top;align=center;verticalAlign=bottom;fontFamily=open sans;" vertex="1" parent="1">
          <mxGeometry x="210" y="360" width="20" height="20" as="geometry" />
        </mxCell>
        <mxCell id="3GclNWIvW_j_DvKTOzkS-15" value="" style="edgeStyle=orthogonalEdgeStyle;rounded=1;orthogonalLoop=1;jettySize=auto;html=1;fontFamily=open sans;fontSize=12;fontColor=default;endArrow=blockThin;endFill=1;entryX=0.5;entryY=0;entryDx=0;entryDy=0;" edge="1" parent="1" source="3GclNWIvW_j_DvKTOzkS-9" target="3GclNWIvW_j_DvKTOzkS-14">
          <mxGeometry relative="1" as="geometry" />
        </mxCell>
        <mxCell id="3GclNWIvW_j_DvKTOzkS-32" value="reference" style="edgeStyle=orthogonalEdgeStyle;orthogonalLoop=1;jettySize=auto;html=1;exitX=0;exitY=1;exitDx=0;exitDy=0;entryX=0;entryY=1;entryDx=0;entryDy=0;fontFamily=open sans;fontSize=12;fontColor=default;rounded=1;labelPosition=right;verticalLabelPosition=middle;align=left;verticalAlign=middle;dashed=1;labelBackgroundColor=default;endArrow=blockThin;endFill=0;" edge="1" parent="1" source="3GclNWIvW_j_DvKTOzkS-9" target="3GclNWIvW_j_DvKTOzkS-1">
          <mxGeometry relative="1" as="geometry">
            <Array as="points">
              <mxPoint x="163" y="430" />
              <mxPoint x="83" y="430" />
            </Array>
          </mxGeometry>
        </mxCell>
        <mxCell id="3GclNWIvW_j_DvKTOzkS-9" value="open child issues" style="ellipse;html=1;labelPosition=center;verticalLabelPosition=top;align=center;verticalAlign=bottom;fontFamily=open sans;" vertex="1" parent="1">
          <mxGeometry x="160" y="400" width="20" height="20" as="geometry" />
        </mxCell>
        <mxCell id="3GclNWIvW_j_DvKTOzkS-17" value="" style="edgeStyle=orthogonalEdgeStyle;rounded=1;orthogonalLoop=1;jettySize=auto;html=1;fontFamily=open sans;fontSize=12;fontColor=default;endArrow=blockThin;endFill=1;exitX=1;exitY=0;exitDx=0;exitDy=0;" edge="1" parent="1" source="3GclNWIvW_j_DvKTOzkS-14" target="3GclNWIvW_j_DvKTOzkS-16">
          <mxGeometry relative="1" as="geometry">
            <Array as="points">
              <mxPoint x="287" y="410" />
            </Array>
          </mxGeometry>
        </mxCell>
        <mxCell id="3GclNWIvW_j_DvKTOzkS-31" value="reference" style="edgeStyle=orthogonalEdgeStyle;rounded=1;orthogonalLoop=1;jettySize=auto;html=1;exitX=0;exitY=0.5;exitDx=0;exitDy=0;entryX=0.5;entryY=1;entryDx=0;entryDy=0;fontFamily=open sans;fontSize=12;fontColor=default;dashed=1;endArrow=blockThin;endFill=0;" edge="1" parent="1" source="3GclNWIvW_j_DvKTOzkS-14" target="3GclNWIvW_j_DvKTOzkS-9">
          <mxGeometry relative="1" as="geometry">
            <Array as="points">
              <mxPoint x="170" y="450" />
            </Array>
          </mxGeometry>
        </mxCell>
        <mxCell id="3GclNWIvW_j_DvKTOzkS-14" value="commit ref.&amp;nbsp;issue" style="ellipse;html=1;labelPosition=center;verticalLabelPosition=bottom;align=center;verticalAlign=top;fontFamily=open sans;" vertex="1" parent="1">
          <mxGeometry x="270" y="440" width="20" height="20" as="geometry" />
        </mxCell>
        <mxCell id="3GclNWIvW_j_DvKTOzkS-16" value="close ref. commits" style="ellipse;html=1;labelPosition=center;verticalLabelPosition=top;align=center;verticalAlign=bottom;fontFamily=open sans;" vertex="1" parent="1">
          <mxGeometry x="380" y="400" width="20" height="20" as="geometry" />
        </mxCell>
      </root>
    </mxGraphModel>
  </diagram>
</mxfile>
